<?xml version="1.0" encoding="iso-8859-1"?>
<!-- Generator: Adobe Illustrator 21.0.0, SVG Export Plug-In . SVG Version: 6.00 Build 0)  -->
<svg xmlns="http://www.w3.org/2000/svg" xmlns:xlink="http://www.w3.org/1999/xlink" version="1.1" id="Capa_1" x="0px" y="0px" viewBox="0 0 512 512" style="enable-background:new 0 0 512 512;" xml:space="preserve" width="512" height="512">
<g>
	<path d="M497,0H15C6.716,0,0,6.716,0,15c0,7.07,0,466.152,0,482c0,8.284,6.716,15,15,15h482c8.284,0,15-6.716,15-15   c0-4.473,0-477.546,0-482C512,6.716,505.284,0,497,0z M30,331h211v30H30V331z M482,66.325c-29.053,11.837-61.947,11.837-91,0V30h91   V66.325z M361,66.322c-28.737,11.685-61.263,11.685-90,0V30h90V66.322z M271,98.189c29.212,9.189,60.788,9.18,90-0.008v301.576   C353.423,406.758,335.602,421,316,421c-19.604,0-37.438-14.253-45-21.239V98.189z M391,98.195c29.531,9.326,61.47,9.335,91,0.008   c0,4.233,0,292.205,0,301.398C474.109,406.647,455.621,421,436,421c-19.602,0-37.423-14.242-45-21.243V98.195z M241,30   c0,11.608,0,259.092,0,271H30V30H241z M30,482v-91h211v15c0,3.692,1.362,7.255,3.825,10.006C246.104,417.435,276.613,451,316,451   c25.627,0,47.496-14.21,60-24.532C388.504,436.79,410.373,451,436,451c17.566,0,33.561-6.695,46-14.214V482H30z"/>
	<path d="M75,211h84.787l-34.394,34.394c-5.858,5.858-5.858,15.355,0,21.213c5.857,5.858,15.356,5.858,21.213,0l59.998-59.998   c5.913-5.909,5.786-15.436,0-21.218l-59.998-59.998c-5.857-5.858-15.355-5.858-21.213,0c-5.858,5.858-5.858,15.355,0,21.213   L159.787,181H75c-8.284,0-15,6.716-15,15S66.716,211,75,211z"/>
</g>















</svg>
